<svg width="35" height="35" viewBox="0 0 35 35" fill="none" xmlns="http://www.w3.org/2000/svg">
<path d="M11.6667 8.75C11.6667 5.52709 14.2771 2.91667 17.5 2.91667C20.7229 2.91667 23.3333 5.52709 23.3333 8.75C23.3333 11.9729 20.7229 14.5833 17.5 14.5833C14.2771 14.5833 11.6667 11.9729 11.6667 8.75ZM24.7917 32.0833H26.25C27.8542 32.0833 29.1667 30.7708 29.1667 29.1667V22.1958C29.1667 20.5625 28.2771 19.0604 26.8187 18.3167C26.1917 17.9958 25.5208 17.6896 24.7917 17.4125V32.0833ZM17.9958 24.7917L21.875 16.5229C20.5187 16.2167 19.0604 16.0417 17.5 16.0417C13.8104 16.0417 10.6312 17.0625 8.18125 18.3167C7.46967 18.6832 6.87356 19.2397 6.4591 19.9245C6.04464 20.6092 5.82804 21.3954 5.83333 22.1958V32.0833H9.24583C8.925 31.4271 8.75 30.6833 8.75 29.8958C8.75 27.0813 11.0396 24.7917 13.8542 24.7917H17.9958ZM14.5833 32.0833L16.6396 27.7083H13.8542C12.6437 27.7083 11.6667 28.6854 11.6667 29.8958C11.6667 31.1063 12.6437 32.0833 13.8542 32.0833H14.5833Z" fill="#EA3333"/>
</svg>
