<svg width="28" height="31" viewBox="0 0 28 31" fill="none" xmlns="http://www.w3.org/2000/svg">
<path d="M24.1594 3.9748C24.1028 3.14505 23.7333 2.36774 23.1255 1.80003C22.5178 1.23233 21.7171 0.916595 20.8854 0.916672H4.11458L3.89 0.923964C3.06026 0.980888 2.2831 1.35077 1.71566 1.95881C1.14822 2.56686 0.832857 3.36769 0.833329 4.19938V26.8006L0.840621 27.0252C0.897174 27.855 1.2667 28.6323 1.87447 29.2C2.48224 29.7677 3.28291 30.0834 4.11458 30.0833H15.1512L12.9637 27.8958H4.11458L3.96583 27.8856C3.70398 27.8497 3.464 27.7201 3.29028 27.5209C3.11656 27.3218 3.02084 27.0664 3.02083 26.8021V4.19938L3.03104 4.05063C3.06698 3.78878 3.19653 3.54881 3.39572 3.37508C3.59491 3.20136 3.85027 3.10564 4.11458 3.10563H20.8854L21.0342 3.11584C21.296 3.15178 21.536 3.28133 21.7097 3.48052C21.8834 3.67971 21.9792 3.93508 21.9792 4.19938V21.0679L23.6694 19.3777C23.824 19.2231 23.9902 19.086 24.1652 18.9694V4.19792L24.1594 3.97334V3.9748ZM18.7533 30.0819C18.7164 30.0839 18.6794 30.0839 18.6425 30.0819C18.3715 30.0683 18.1153 29.9545 17.9235 29.7625L14.2777 26.1138C14.0727 25.9084 13.9577 25.63 13.958 25.3398C13.9583 25.0496 14.0738 24.7715 14.2792 24.5665C14.4845 24.3615 14.7629 24.2465 15.0531 24.2467C15.3433 24.247 15.6215 24.3625 15.8265 24.5679L18.6979 27.4423L25.2167 20.9235C25.3176 20.8191 25.4383 20.7359 25.5718 20.6786C25.7053 20.6213 25.8488 20.5912 25.994 20.5901C26.1393 20.5889 26.2833 20.6166 26.4177 20.6717C26.5521 20.7267 26.6741 20.808 26.7768 20.9107C26.8794 21.0135 26.9606 21.1356 27.0155 21.2701C27.0704 21.4045 27.0981 21.5486 27.0967 21.6938C27.0954 21.839 27.0652 21.9825 27.0078 22.1159C26.9504 22.2493 26.867 22.37 26.7625 22.4708L19.4708 29.7625C19.2795 29.9541 19.0238 30.0679 18.7533 30.0819ZM15.1833 22.0625C15.0949 22.059 15.0063 22.059 14.9179 22.0625H11.399C11.1089 22.0625 10.8307 21.9473 10.6256 21.7422C10.4204 21.537 10.3052 21.2588 10.3052 20.9688C10.3052 20.6787 10.4204 20.4005 10.6256 20.1954C10.8307 19.9902 11.1089 19.875 11.399 19.875H18.6965C18.9865 19.875 19.2647 19.9902 19.4699 20.1954C19.675 20.4005 19.7902 20.6787 19.7902 20.9688C19.7902 21.2588 19.675 21.537 19.4699 21.7422C19.2647 21.9473 18.9865 22.0625 18.6965 22.0625H15.1833ZM8.125 9.30501C8.125 9.69178 7.97135 10.0627 7.69786 10.3362C7.42437 10.6097 7.05344 10.7633 6.66666 10.7633C6.27989 10.7633 5.90896 10.6097 5.63547 10.3362C5.36197 10.0627 5.20833 9.69178 5.20833 9.30501C5.20833 8.91823 5.36197 8.5473 5.63547 8.27381C5.90896 8.00032 6.27989 7.84667 6.66666 7.84667C7.05344 7.84667 7.42437 8.00032 7.69786 8.27381C7.97135 8.5473 8.125 8.91823 8.125 9.30501ZM10.3067 9.30209C10.3067 9.01201 10.4219 8.73381 10.627 8.52869C10.8321 8.32357 11.1103 8.20834 11.4004 8.20834H18.6979C18.988 8.20834 19.2662 8.32357 19.4713 8.52869C19.6764 8.73381 19.7917 9.01201 19.7917 9.30209C19.7917 9.59217 19.6764 9.87037 19.4713 10.0755C19.2662 10.2806 18.988 10.3958 18.6979 10.3958H11.4004C11.1103 10.3958 10.8321 10.2806 10.627 10.0755C10.4219 9.87037 10.3067 9.59217 10.3067 9.30209ZM11.4004 14.0417C11.1103 14.0417 10.8321 14.1569 10.627 14.362C10.4219 14.5671 10.3067 14.8453 10.3067 15.1354C10.3067 15.4255 10.4219 15.7037 10.627 15.9088C10.8321 16.1139 11.1103 16.2292 11.4004 16.2292H18.6979C18.8415 16.2292 18.9838 16.2009 19.1165 16.1459C19.2492 16.0909 19.3697 16.0104 19.4713 15.9088C19.5729 15.8073 19.6534 15.6867 19.7084 15.554C19.7634 15.4213 19.7917 15.2791 19.7917 15.1354C19.7917 14.9918 19.7634 14.8496 19.7084 14.7169C19.6534 14.5842 19.5729 14.4636 19.4713 14.362C19.3697 14.2605 19.2492 14.1799 19.1165 14.1249C18.9838 14.07 18.8415 14.0417 18.6979 14.0417H11.4004ZM6.66666 16.5938C7.05344 16.5938 7.42437 16.4401 7.69786 16.1666C7.97135 15.8931 8.125 15.5222 8.125 15.1354C8.125 14.7486 7.97135 14.3777 7.69786 14.1042C7.42437 13.8307 7.05344 13.6771 6.66666 13.6771C6.27989 13.6771 5.90896 13.8307 5.63547 14.1042C5.36197 14.3777 5.20833 14.7486 5.20833 15.1354C5.20833 15.5222 5.36197 15.8931 5.63547 16.1666C5.90896 16.4401 6.27989 16.5938 6.66666 16.5938ZM8.125 20.9658C8.125 21.3526 7.97135 21.7235 7.69786 21.997C7.42437 22.2705 7.05344 22.4242 6.66666 22.4242C6.27989 22.4242 5.90896 22.2705 5.63547 21.997C5.36197 21.7235 5.20833 21.3526 5.20833 20.9658C5.20833 20.5791 5.36197 20.2081 5.63547 19.9346C5.90896 19.6612 6.27989 19.5075 6.66666 19.5075C7.05344 19.5075 7.42437 19.6612 7.69786 19.9346C7.97135 20.2081 8.125 20.5791 8.125 20.9658Z" fill="#10BAAB"/>
</svg>
