<svg width="253" height="243" viewBox="0 0 253 243" fill="none" xmlns="http://www.w3.org/2000/svg">
<circle cx="126.5" cy="68" r="67.5" fill="#7BC1B7"/>
<path d="M169.543 60.3687C171.479 61.0539 172.492 63.1748 171.807 65.1112L171.814 65.106L166.948 78.8884C166.046 81.4323 164.355 83.6245 162.125 85.138L137.477 101.865C136.116 102.789 134.27 102.435 133.346 101.074L130.006 96.1521C129.082 94.7909 129.435 92.9448 130.797 92.0211L133.627 90.1005L135.201 84.9886C136.002 82.412 137.654 80.1789 139.892 78.6602L152.066 70.3986C153.427 69.4748 155.273 69.8282 156.197 71.1894C157.12 72.5506 156.767 74.3966 155.406 75.3204L149.254 79.4956C148.577 79.9548 148.399 80.8843 148.858 81.5611C149.317 82.2378 150.247 82.4158 150.924 81.9565L160.198 75.6624L164.8 62.6324C165.486 60.696 167.607 59.6835 169.543 60.3687Z" fill="white"/>
<path d="M82.2473 60.3687C80.3108 61.0539 79.2983 63.1748 79.9835 65.1112L79.9759 65.106L84.8426 78.8883C85.7445 81.4323 87.4355 83.6245 89.6657 85.138L114.313 101.865C115.675 102.789 117.521 102.435 118.444 101.074L121.785 96.1521C122.708 94.7909 122.355 92.9448 120.994 92.0211L118.164 90.1005L116.589 84.9886C115.788 82.412 114.136 80.1789 111.898 78.6601L99.7246 70.3985C98.3634 69.4748 96.5173 69.8282 95.5936 71.1894C94.6698 72.5506 95.0232 74.3966 96.3844 75.3204L102.537 79.4956C103.214 79.9548 103.391 80.8843 102.932 81.5611C102.473 82.2378 101.543 82.4157 100.867 81.9565L91.5921 75.6624L86.9898 62.6324C86.3046 60.696 84.1837 59.6835 82.2473 60.3687Z" fill="white"/>
<path fill-rule="evenodd" clip-rule="evenodd" d="M145.423 38.8269C146.803 40.2543 147.907 41.9525 148.672 43.8265C149.466 45.7769 149.871 47.8479 149.865 49.9794C149.865 51.9901 149.477 54.0853 148.706 56.2168C148.067 57.9981 147.136 59.8457 145.954 61.7115C144.081 64.6642 141.506 67.7436 138.309 70.8654C133.004 76.04 127.763 79.6086 127.54 79.7595L126.187 80.6773C125.587 81.0819 124.817 81.0819 124.217 80.6773L122.864 79.7595C122.641 79.6146 117.394 76.04 112.095 70.8654C108.898 67.7436 106.323 64.6642 104.45 61.7115C103.268 59.8457 102.343 57.9981 101.698 56.2168C100.927 54.0853 100.539 51.9901 100.539 49.9794C100.539 47.8479 100.944 45.7769 101.738 43.8265C102.501 41.9513 103.605 40.2527 104.986 38.8269C106.374 37.3899 107.99 36.2607 109.783 35.4758C111.638 34.6606 113.603 34.25 115.63 34.25C118.444 34.25 121.191 35.0652 123.578 36.6049C124.149 36.9732 124.691 37.3778 125.205 37.8186C125.719 37.3778 126.261 36.9732 126.832 36.6049C129.219 35.0652 131.965 34.25 134.78 34.25C136.787 34.2451 138.774 34.6618 140.627 35.4758C142.414 36.2577 144.042 37.3953 145.423 38.8269ZM124.697 58.7881V64.7843H127.673V58.7881H133.669V55.8121H127.673V49.8269H124.697V55.8121H118.712V58.7881H124.697Z" fill="white"/>
<path d="M6.37 233.5V184.5H15.96L33.81 213.55L27.51 213.48L45.57 184.5H54.74V233.5H44.45V216.7C44.45 212.5 44.5433 208.72 44.73 205.36C44.9633 202 45.3367 198.663 45.85 195.35L47.11 198.64L32.76 220.9H28.14L14.07 198.78L15.26 195.35C15.7733 198.477 16.1233 201.697 16.31 205.01C16.5433 208.277 16.66 212.173 16.66 216.7V233.5H6.37ZM83.6533 234.2C79.6399 234.2 76.1399 233.383 73.1533 231.75C70.1666 230.117 67.8333 227.877 66.1533 225.03C64.4733 222.183 63.6333 218.917 63.6333 215.23C63.6333 212.383 64.0999 209.77 65.0333 207.39C65.9666 205.01 67.2733 202.957 68.9533 201.23C70.6333 199.457 72.6166 198.103 74.9033 197.17C77.2366 196.19 79.7566 195.7 82.4633 195.7C84.9833 195.7 87.3166 196.167 89.4633 197.1C91.61 197.987 93.4533 199.27 94.9933 200.95C96.5799 202.583 97.7933 204.52 98.6333 206.76C99.4733 209 99.8466 211.45 99.7533 214.11L99.6833 217.19H69.9333L68.3233 211.1H91.4933L90.3733 212.36V210.82C90.2799 209.56 89.8599 208.417 89.1133 207.39C88.4133 206.363 87.5033 205.57 86.3833 205.01C85.2633 204.45 84.0033 204.17 82.6033 204.17C80.5499 204.17 78.7999 204.567 77.3533 205.36C75.9533 206.153 74.8799 207.32 74.1333 208.86C73.3866 210.4 73.0133 212.267 73.0133 214.46C73.0133 216.7 73.4799 218.637 74.4133 220.27C75.3933 221.903 76.7466 223.187 78.4733 224.12C80.2466 225.007 82.3233 225.45 84.7033 225.45C86.3366 225.45 87.8299 225.193 89.1833 224.68C90.5366 224.167 91.9833 223.28 93.5233 222.02L98.2833 228.67C96.9299 229.883 95.4366 230.91 93.8033 231.75C92.1699 232.543 90.4899 233.15 88.7633 233.57C87.0366 233.99 85.3333 234.2 83.6533 234.2ZM121.589 234.2C118.369 234.2 115.476 233.383 112.909 231.75C110.342 230.07 108.312 227.807 106.819 224.96C105.372 222.067 104.649 218.73 104.649 214.95C104.649 211.263 105.372 207.973 106.819 205.08C108.312 202.187 110.319 199.9 112.839 198.22C115.406 196.54 118.322 195.7 121.589 195.7C123.316 195.7 124.972 195.98 126.559 196.54C128.192 197.053 129.639 197.777 130.899 198.71C132.206 199.643 133.256 200.693 134.049 201.86C134.842 202.98 135.286 204.17 135.379 205.43L132.859 205.85V181.7H142.799V233.5H133.419L132.999 224.96L134.959 225.17C134.866 226.337 134.446 227.457 133.699 228.53C132.952 229.603 131.949 230.583 130.689 231.47C129.476 232.31 128.076 232.987 126.489 233.5C124.949 233.967 123.316 234.2 121.589 234.2ZM123.829 225.94C125.696 225.94 127.329 225.473 128.729 224.54C130.129 223.607 131.226 222.323 132.019 220.69C132.812 219.057 133.209 217.143 133.209 214.95C133.209 212.803 132.812 210.913 132.019 209.28C131.226 207.6 130.129 206.317 128.729 205.43C127.329 204.497 125.696 204.03 123.829 204.03C121.962 204.03 120.329 204.497 118.929 205.43C117.576 206.317 116.502 207.6 115.709 209.28C114.962 210.913 114.589 212.803 114.589 214.95C114.589 217.143 114.962 219.057 115.709 220.69C116.502 222.323 117.576 223.607 118.929 224.54C120.329 225.473 121.962 225.94 123.829 225.94ZM153.33 233.5V196.47H163.27V233.5H153.33ZM158.23 188.84C156.316 188.84 154.823 188.373 153.75 187.44C152.676 186.507 152.14 185.177 152.14 183.45C152.14 181.863 152.676 180.58 153.75 179.6C154.87 178.573 156.363 178.06 158.23 178.06C160.143 178.06 161.636 178.55 162.71 179.53C163.783 180.463 164.32 181.77 164.32 183.45C164.32 185.083 163.76 186.39 162.64 187.37C161.566 188.35 160.096 188.84 158.23 188.84ZM189.986 234.2C186.439 234.2 183.266 233.36 180.466 231.68C177.666 230 175.449 227.713 173.816 224.82C172.229 221.927 171.436 218.637 171.436 214.95C171.436 211.31 172.229 208.043 173.816 205.15C175.449 202.21 177.666 199.9 180.466 198.22C183.266 196.54 186.439 195.7 189.986 195.7C193.299 195.7 196.333 196.307 199.086 197.52C201.839 198.733 203.986 200.413 205.526 202.56L200.066 209.14C199.413 208.253 198.596 207.46 197.616 206.76C196.636 206.013 195.563 205.43 194.396 205.01C193.276 204.59 192.109 204.38 190.896 204.38C188.983 204.38 187.279 204.847 185.786 205.78C184.339 206.667 183.196 207.903 182.356 209.49C181.516 211.077 181.096 212.897 181.096 214.95C181.096 216.957 181.516 218.753 182.356 220.34C183.243 221.88 184.433 223.14 185.926 224.12C187.419 225.053 189.099 225.52 190.966 225.52C192.179 225.52 193.323 225.357 194.396 225.03C195.469 224.657 196.473 224.12 197.406 223.42C198.386 222.72 199.273 221.88 200.066 220.9L205.456 227.48C203.869 229.487 201.676 231.12 198.876 232.38C196.076 233.593 193.113 234.2 189.986 234.2ZM225.685 234.2C222.605 234.2 219.829 233.36 217.355 231.68C214.882 230 212.922 227.713 211.475 224.82C210.029 221.927 209.305 218.613 209.305 214.88C209.305 211.147 210.029 207.857 211.475 205.01C212.969 202.117 214.975 199.853 217.495 198.22C220.015 196.54 222.885 195.7 226.105 195.7C227.925 195.7 229.582 195.98 231.075 196.54C232.615 197.053 233.945 197.777 235.065 198.71C236.232 199.643 237.212 200.717 238.005 201.93C238.799 203.143 239.359 204.45 239.685 205.85L237.585 205.5V196.47H247.455V233.5H237.445V224.61L239.685 224.4C239.312 225.707 238.705 226.943 237.865 228.11C237.025 229.277 235.975 230.327 234.715 231.26C233.502 232.147 232.125 232.87 230.585 233.43C229.045 233.943 227.412 234.2 225.685 234.2ZM228.415 225.59C230.282 225.59 231.915 225.147 233.315 224.26C234.715 223.373 235.789 222.137 236.535 220.55C237.329 218.917 237.725 217.027 237.725 214.88C237.725 212.78 237.329 210.937 236.535 209.35C235.789 207.763 234.715 206.527 233.315 205.64C231.915 204.707 230.282 204.24 228.415 204.24C226.595 204.24 224.985 204.707 223.585 205.64C222.232 206.527 221.159 207.763 220.365 209.35C219.572 210.937 219.175 212.78 219.175 214.88C219.175 217.027 219.572 218.917 220.365 220.55C221.159 222.137 222.232 223.373 223.585 224.26C224.985 225.147 226.595 225.59 228.415 225.59Z" fill="#0B8FAC"/>
</svg>
